<svg xmlns="http://www.w3.org/2000/svg" viewBox="670.41 624.691 277.906 79.629" width="277.906" height="79.629">
<path fill="#FFFFFF" d="M 670.640625 677.234375 L 670.714844 676.964844 L 778.136719 676.964844 L 778.058594 677.234375 C 776.675781 677.425781 775.90625 678.273438 775.90625 679.269531 C 775.90625 679.964844 775.945312 680.921875 776.058594 681.882812 L 778.210938 700.824219 L 778.367188 700.824219 L 787.699219 681.960938 L 787.585938 680.886719 C 787.394531 678.734375 786.242188 677.582031 784.78125 677.234375 L 784.859375 676.964844 L 794.195312 676.964844 L 794.117188 677.234375 C 792.734375 677.425781 791.964844 678.273438 791.964844 679.269531 C 791.964844 679.964844 792.042969 681 792.082031 681.921875 L 793.769531 700.824219 L 793.886719 700.824219 L 800.570312 689.914062 C 802.53125 686.800781 803.796875 684.035156 803.796875 681.308594 C 803.796875 679.078125 802.644531 677.503906 800.648438 677.15625 C 801.226562 676.542969 802.03125 676.199219 802.992188 676.199219 C 804.949219 676.199219 806.449219 677.773438 806.449219 680.039062 C 806.449219 682.730469 804.875 685.339844 801.839844 689.988281 L 793.15625 703.859375 L 789.96875 703.859375 L 787.894531 683.957031 L 777.867188 703.859375 L 774.601562 703.859375 L 771.527344 681.539062 C 771.179688 678.964844 672.136719 677.582031 670.640625 677.234375"/>
<path fill="#FFFFFF" d="M 813.441406 694.984375 C 817.667969 694.984375 821.164062 691.71875 821.164062 688.070312 C 821.164062 686.03125 819.894531 684.6875 817.746094 684.6875 C 813.828125 684.6875 810.371094 688.914062 809.410156 694.175781 C 810.675781 694.714844 812.097656 694.984375 813.441406 694.984375 M 805.296875 696.867188 C 805.296875 689.722656 810.445312 684.113281 817.359375 684.113281 C 821.433594 684.113281 823.816406 685.800781 823.816406 688.722656 C 823.816406 692.640625 819.742188 695.675781 814.480469 695.675781 C 812.675781 695.675781 810.597656 695.214844 809.332031 694.5625 C 809.214844 695.445312 809.140625 696.328125 809.140625 697.25 C 809.140625 701.402344 810.792969 703.589844 814.210938 703.589844 C 817.359375 703.589844 820.089844 700.785156 820.089844 697.636719 C 820.089844 697.136719 819.972656 696.636719 819.742188 696.214844 C 820.011719 696.097656 820.320312 696.023438 820.625 696.023438 C 821.472656 696.023438 822.046875 696.636719 822.046875 697.671875 C 822.046875 701.054688 817.859375 704.320312 813.367188 704.320312 C 808.0625 704.320312 805.296875 701.402344 805.296875 696.867188"/>
<path fill="#FFFFFF" d="M 825.082031 700.9375 C 825.082031 699.710938 825.738281 697.636719 826.121094 696.519531 L 830.84375 680.691406 C 831.152344 679.808594 831.382812 678.808594 831.382812 678.15625 C 831.382812 677.464844 831 676.929688 830.347656 676.699219 L 830.347656 676.582031 L 835.996094 676.582031 L 829.65625 697.097656 C 829.347656 698.058594 828.964844 699.519531 828.964844 700.554688 C 828.964844 702.054688 829.925781 702.824219 831.117188 702.824219 C 832.34375 702.824219 833.304688 702.324219 834.265625 701.4375 L 834.417969 701.667969 C 833.035156 703.167969 831.078125 704.207031 828.925781 704.207031 C 826.351562 704.207031 825.082031 702.707031 825.082031 700.9375"/>
<path fill="#FFFFFF" d="M 835.957031 700.9375 C 835.957031 699.710938 836.609375 697.636719 836.992188 696.519531 L 841.71875 680.691406 C 842.027344 679.808594 842.257812 678.808594 842.257812 678.15625 C 842.257812 677.464844 841.871094 676.929688 841.21875 676.699219 L 841.21875 676.582031 L 846.867188 676.582031 L 840.527344 697.097656 C 840.21875 698.058594 839.835938 699.519531 839.835938 700.554688 C 839.835938 702.054688 840.796875 702.824219 841.988281 702.824219 C 843.21875 702.824219 844.175781 702.324219 845.136719 701.4375 L 845.292969 701.667969 C 843.90625 703.167969 841.949219 704.207031 839.796875 704.207031 C 837.222656 704.207031 835.957031 702.707031 835.957031 700.9375"/>
<path fill="#FFFFFF" d="M 859.8125 700.632812 C 859.851562 696.945312 863.964844 692.296875 863.964844 688.183594 C 863.964844 686.648438 863.042969 685.726562 861.429688 685.726562 C 857.125 685.726562 853.820312 692.257812 851.976562 698.058594 L 851.132812 700.632812 C 850.785156 701.746094 850.710938 702.285156 850.710938 702.78125 C 850.710938 703.242188 850.785156 703.628906 850.9375 703.859375 L 845.753906 703.859375 C 846.519531 702.4375 847.058594 701.171875 847.75 698.597656 L 850.554688 689.105469 C 850.824219 688.144531 850.976562 687.417969 850.976562 686.722656 C 850.976562 685.648438 850.59375 684.996094 849.902344 684.6875 L 849.902344 684.574219 L 854.011719 684.574219 C 854.359375 684.996094 854.589844 685.609375 854.589844 686.339844 C 854.589844 687.148438 854.359375 688.109375 854.128906 688.914062 L 851.632812 697.019531 L 851.898438 697.019531 C 854.128906 690.644531 857.355469 684.113281 863.117188 684.113281 C 865.960938 684.113281 867.726562 685.800781 867.726562 688.109375 C 867.726562 692.410156 863.695312 696.90625 863.695312 700.324219 C 863.695312 701.976562 864.65625 702.820312 865.847656 702.820312 C 867 702.820312 867.996094 702.320312 868.996094 701.4375 L 869.148438 701.667969 C 867.726562 703.128906 865.730469 704.207031 863.578125 704.207031 C 861.121094 704.207031 859.8125 702.707031 859.8125 700.632812"/>
<path fill="#FFFFFF" d="M 878.714844 694.984375 C 882.941406 694.984375 886.4375 691.71875 886.4375 688.070312 C 886.4375 686.03125 885.171875 684.6875 883.019531 684.6875 C 879.101562 684.6875 875.644531 688.914062 874.683594 694.175781 C 875.949219 694.714844 877.371094 694.984375 878.714844 694.984375 M 870.570312 696.867188 C 870.570312 689.722656 875.71875 684.113281 882.636719 684.113281 C 886.707031 684.113281 889.089844 685.800781 889.089844 688.722656 C 889.089844 692.640625 885.015625 695.675781 879.753906 695.675781 C 877.949219 695.675781 875.875 695.214844 874.605469 694.5625 C 874.492188 695.445312 874.414062 696.328125 874.414062 697.25 C 874.414062 701.402344 876.066406 703.589844 879.484375 703.589844 C 882.636719 703.589844 885.363281 700.785156 885.363281 697.636719 C 885.363281 697.136719 885.246094 696.636719 885.015625 696.214844 C 885.285156 696.097656 885.59375 696.023438 885.902344 696.023438 C 886.746094 696.023438 887.324219 696.636719 887.324219 697.671875 C 887.324219 701.054688 883.132812 704.320312 878.640625 704.320312 C 873.339844 704.320312 870.570312 701.402344 870.570312 696.867188"/>
<path fill="#FFFFFF" d="M 890.242188 699.09375 C 890.242188 697.289062 891.164062 696.292969 893.125 696.292969 C 892.816406 696.945312 892.664062 697.597656 892.664062 698.25 C 892.664062 701.285156 895.542969 703.707031 899.039062 703.707031 C 901.730469 703.707031 903.917969 701.976562 903.917969 699.59375 C 903.917969 697.980469 903.113281 696.980469 898.808594 695.445312 C 894.351562 693.832031 893.007812 692.257812 893.007812 689.796875 C 893.007812 686.496094 896.003906 684.113281 900.730469 684.113281 C 905.300781 684.113281 907.914062 686.03125 907.914062 688.992188 C 907.914062 690.605469 906.953125 691.757812 905.6875 691.757812 C 905.378906 691.757812 905.148438 691.71875 904.957031 691.640625 C 905.339844 690.875 905.53125 689.988281 905.53125 689.261719 C 905.53125 686.417969 903.6875 684.648438 900.769531 684.648438 C 897.847656 684.648438 896.003906 686.148438 896.003906 688.375 C 896.003906 690.144531 897.15625 691.257812 900.617188 692.449219 C 905.265625 694.023438 906.683594 695.40625 906.683594 697.980469 C 906.683594 701.515625 903.382812 704.320312 898.464844 704.320312 C 893.355469 704.320312 890.242188 702.207031 890.242188 699.09375"/>
<path fill="#FFFFFF" d="M 909.453125 699.09375 C 909.453125 697.289062 910.375 696.292969 912.332031 696.292969 C 912.027344 696.945312 911.871094 697.597656 911.871094 698.25 C 911.871094 701.285156 914.753906 703.707031 918.25 703.707031 C 920.9375 703.707031 923.128906 701.976562 923.128906 699.59375 C 923.128906 697.980469 922.320312 696.980469 918.019531 695.445312 C 913.5625 693.832031 912.21875 692.257812 912.21875 689.796875 C 912.21875 686.496094 915.214844 684.113281 919.941406 684.113281 C 924.511719 684.113281 927.125 686.03125 927.125 688.992188 C 927.125 690.605469 926.164062 691.757812 924.894531 691.757812 C 924.589844 691.757812 924.359375 691.71875 924.164062 691.640625 C 924.550781 690.875 924.742188 689.988281 924.742188 689.261719 C 924.742188 686.417969 922.898438 684.648438 919.976562 684.648438 C 917.058594 684.648438 915.214844 686.148438 915.214844 688.375 C 915.214844 690.144531 916.367188 691.257812 919.824219 692.449219 C 924.472656 694.023438 925.894531 695.40625 925.894531 697.980469 C 925.894531 701.515625 922.589844 704.320312 917.675781 704.320312 C 912.5625 704.320312 909.453125 702.207031 909.453125 699.09375"/>
<path fill="#FFFFFF" d="M 735.40625 646.929688 C 735.40625 633.617188 746.277344 624.691406 763.636719 624.691406 C 780.882812 624.691406 791.699219 633.617188 791.699219 646.929688 C 791.699219 660.238281 780.882812 668.558594 763.636719 668.558594 C 746.277344 668.558594 735.40625 660.238281 735.40625 646.929688 M 781.714844 646.929688 C 781.769531 637.832031 774.785156 631.621094 763.636719 631.621094 C 752.378906 631.621094 745.335938 637.832031 745.390625 646.929688 C 745.335938 655.636719 752.378906 661.125 763.636719 661.125 C 774.785156 661.125 781.769531 655.636719 781.714844 646.929688"/>
<path fill="#FFFFFF" d="M 844.273438 666.449219 L 844.605469 666.894531 L 833.515625 666.894531 L 821.867188 652.199219 L 805.785156 652.199219 L 805.785156 666.894531 L 796.246094 666.894531 L 796.246094 626.1875 L 821.257812 626.1875 C 837.949219 626.1875 844.660156 629.902344 844.660156 639.164062 C 844.660156 646.042969 841 649.867188 832.347656 651.421875 L 841.277344 662.734375 Z M 805.949219 645.265625 L 822.921875 645.265625 C 830.90625 645.265625 834.125 643.546875 834.125 639.164062 C 834.125 634.78125 830.90625 633.0625 822.921875 633.0625 L 805.949219 633.0625 Z M 805.949219 645.265625"/>
<path fill="#FFFFFF" d="M 670.410156 626.1875 L 680.613281 626.1875 L 700.910156 651.308594 L 721.210938 626.1875 L 730.859375 626.1875 L 730.859375 666.894531 L 721.929688 666.894531 L 721.929688 638.554688 L 704.351562 659.796875 L 703.851562 660.347656 L 697.359375 660.347656 L 679.335938 638.554688 L 679.335938 666.894531 L 670.410156 666.894531 Z M 670.410156 626.1875"/>
<path fill="#FFFFFF" d="M 845.882812 666.5625 L 847.046875 664.566406 L 868.066406 628.070312 L 869.175781 626.1875 L 878.214844 626.1875 L 900.289062 664.398438 L 901.5625 666.5625 L 901.730469 666.894531 L 891.136719 666.894531 L 891.027344 666.617188 L 890.304688 665.339844 L 886.476562 657.964844 L 860.855469 657.964844 L 857.25 664.898438 L 856.308594 666.5625 L 856.085938 666.894531 L 845.714844 666.894531 Z M 882.652344 651.421875 L 873.609375 634.285156 L 864.570312 651.421875 Z M 882.652344 651.421875"/>
<path fill="#FFFFFF" d="M 948.316406 626.1875 L 924.964844 653.972656 L 924.964844 666.894531 L 915.484375 666.894531 L 915.484375 653.972656 L 891.96875 626.1875 L 903.28125 626.1875 L 920.253906 646.207031 L 937.058594 626.1875 Z M 948.316406 626.1875"/>
</svg>
